<?xml version="1.0" standalone="no"?><!DOCTYPE svg PUBLIC "-//W3C//DTD SVG 1.1//EN" "http://www.w3.org/Graphics/SVG/1.1/DTD/svg11.dtd"><svg t="1701091576069" class="icon" viewBox="0 0 1024 1024" version="1.1" xmlns="http://www.w3.org/2000/svg" p-id="1449" xmlns:xlink="http://www.w3.org/1999/xlink" width="200" height="200"><path d="M93.968 250.336h836.064c17.76 0 32.16-14.4 32.16-32.16V137.792c0-17.76-14.4-32.16-32.16-32.16H93.968C76.208 105.632 61.808 120.032 61.808 137.792v80.384c0 17.76 14.4 32.16 32.16 32.16z m0 321.568h836.064c17.76 0 32.16-14.4 32.16-32.16v-80.384c0-17.76-14.4-32.16-32.16-32.16H93.968C76.208 427.2 61.808 441.6 61.808 459.36v80.384c0 17.76 14.4 32.16 32.16 32.16z m0 321.568h836.064c17.76 0 32.16-14.4 32.16-32.16v-80.384c0-17.76-14.4-32.16-32.16-32.16H93.968c-17.76 0-32.16 14.4-32.16 32.16v80.384c0 17.76 14.4 32.16 32.16 32.16z" p-id="1450"></path></svg>