<?xml version="1.0" standalone="no"?><!DOCTYPE svg PUBLIC "-//W3C//DTD SVG 1.1//EN" "http://www.w3.org/Graphics/SVG/1.1/DTD/svg11.dtd"><svg t="1701169601920" class="icon" viewBox="0 0 1024 1024" version="1.1" xmlns="http://www.w3.org/2000/svg" p-id="6956" xmlns:xlink="http://www.w3.org/1999/xlink" width="128" height="128"><path d="M516.266667 554.666667L512 341.333333h42.666667v192l136.533333 136.533334-29.866667 29.866666-145.066666-145.066666z m-371.2-128l34.133333 34.133333C213.333333 294.4 358.4 170.666667 533.333333 170.666667c200.533333 0 362.666667 162.133333 362.666667 362.666666S733.866667 896 533.333333 896c-187.733333 0-341.333333-140.8-358.4-324.266667l55.466667 55.466667c38.4 132.266667 162.133333 226.133333 307.2 226.133333 174.933333 0 320-145.066667 320-320S708.266667 213.333333 533.333333 213.333333 213.333333 358.4 213.333333 533.333333v21.333334l-42.666666-42.666667-85.333334-85.333333h59.733334z" fill="#ffffff" p-id="6957"></path></svg>