<?xml version="1.0" standalone="no"?><!DOCTYPE svg PUBLIC "-//W3C//DTD SVG 1.1//EN" "http://www.w3.org/Graphics/SVG/1.1/DTD/svg11.dtd"><svg t="1700480317832" class="icon" viewBox="0 0 1024 1024" version="1.1" xmlns="http://www.w3.org/2000/svg" p-id="4936" xmlns:xlink="http://www.w3.org/1999/xlink" width="128" height="128"><path d="M458 774.6c-58-10.1-99.4-35.5-142.9-87.5l-3.1-3.4c-6.9-6.4-16.9-8.3-26.1-4.9-2.5 1-4.7 2.3-6.5 3.9-9.1 7.6-11.4 20.8-5.3 31.8l3.5 4.6c50 59.8 100.7 90.6 169.3 103.1 0.1 0 10.4 2.4 14.7 0.8l3.2-1h0.1c2.2-0.9 4.3-2.2 6.3-3.8 10.4-8.7 11.8-24.3 3-34.8-4.3-5.2-10.4-8.4-16.2-8.8zM283.2 653.4c0.8-7-1.2-13.9-5.5-19.4-7.1-9-19.1-12.3-29.8-8.4-2.6 0.9-5 2.3-7.2 4.1-11.4 9-13.3 25.6-4.3 37 7.1 9 19.1 12.3 29.8 8.4 2.6-1 5-2.3 7.2-4.1 5.4-4.4 8.9-10.6 9.8-17.6z" fill="#6B400D" p-id="4937"></path><path d="M512.4 63.9c-247 0-447.9 200.9-447.9 447.9 0 247 200.9 447.9 447.9 447.9s447.9-200.9 447.9-447.9c0.1-247-200.9-447.9-447.9-447.9z m0 832.8c-212.2 0-384.9-172.7-384.9-384.9s172.7-384.9 384.9-384.9 384.9 172.7 384.9 384.9c0.1 212.2-172.6 384.9-384.9 384.9z" fill="#6B400D" p-id="4938"></path><path d="M279.6 279l153.1 312.6 312.6 153L592.2 432 279.6 279z m192.6 273.1l-77.3-157.8 157.8 77.3L630 629.3l-157.8-77.2z" fill="#6B400D" p-id="4939"></path><path d="M394.9 394.3l77.3 157.8L630 629.3l-77.3-157.8z" fill="#FFD524" p-id="4940"></path></svg>