<?xml version="1.0" standalone="no"?><!DOCTYPE svg PUBLIC "-//W3C//DTD SVG 1.1//EN" "http://www.w3.org/Graphics/SVG/1.1/DTD/svg11.dtd"><svg t="1701165772742" class="icon" viewBox="0 0 1024 1024" version="1.1" xmlns="http://www.w3.org/2000/svg" p-id="2363" width="128" height="128" xmlns:xlink="http://www.w3.org/1999/xlink"><path d="M736.253153 735.91399h-191.977563V639.925209a319.962604 319.962604 0 1 0-63.992521 0v95.988781h-191.977562A31.356335 31.356335 0 0 0 255.669321 767.91025a31.356335 31.356335 0 0 0 31.356335 31.356336h191.977563v191.977562A30.076485 30.076485 0 0 0 511.639404 1023.880334a30.076485 30.076485 0 0 0 30.076485-30.076485v-191.977562h191.977563A31.356335 31.356335 0 0 0 767.609488 767.91025a31.356335 31.356335 0 0 0-31.356335-31.99626zM255.669321 319.962604a255.970083 255.970083 0 1 1 255.970083 255.970084 255.970083 255.970083 0 0 1-255.970083-255.970084z" fill="#f93d94" p-id="2364"></path></svg>