<?xml version="1.0" standalone="no"?><!DOCTYPE svg PUBLIC "-//W3C//DTD SVG 1.1//EN" "http://www.w3.org/Graphics/SVG/1.1/DTD/svg11.dtd"><svg t="1701091826818" class="icon" viewBox="0 0 1024 1024" version="1.1" xmlns="http://www.w3.org/2000/svg" p-id="2453" xmlns:xlink="http://www.w3.org/1999/xlink" width="200" height="200"><path d="M160 416a32 32 0 0 1-32-32V256a128.1 128.1 0 0 1 128-128h128a32 32 0 1 1 0 64H256a64.1 64.1 0 0 0-64 64v128a32 32 0 0 1-32 32zM384 896H256a128.1 128.1 0 0 1-128-128V640a32 32 0 1 1 64 0v128a64.1 64.1 0 0 0 64 64h128a32 32 0 0 1 0 64zM768 896H640a32 32 0 0 1 0-64h128a64.1 64.1 0 0 0 64-64V640a32 32 0 1 1 64 0v128a128.1 128.1 0 0 1-128 128zM864 416a32 32 0 0 1-32-32V256a64.1 64.1 0 0 0-64-64H640a32 32 0 0 1 0-64h128a128.1 128.1 0 0 1 128 128v128a32 32 0 0 1-32 32zM800 544H224a32 32 0 0 1 0-64H800a32 32 0 0 1 0 64z" fill="#ffffff" p-id="2454"></path></svg>