<?xml version="1.0" standalone="no"?><!DOCTYPE svg PUBLIC "-//W3C//DTD SVG 1.1//EN" "http://www.w3.org/Graphics/SVG/1.1/DTD/svg11.dtd"><svg t="1701169575255" class="icon" viewBox="0 0 1024 1024" version="1.1" xmlns="http://www.w3.org/2000/svg" p-id="5884" xmlns:xlink="http://www.w3.org/1999/xlink" width="128" height="128"><path d="M615.8 802.5H408.3c-11.4 0-20.8 9.3-20.8 20.8 0 11.4 9.3 20.8 20.8 20.8h207.5c11.4 0 20.8-9.3 20.8-20.8-0.1-11.5-9.4-20.8-20.8-20.8zM574.3 885.5H449.8c-11.4 0-20.8 9.3-20.8 20.8 0 11.4 9.3 20.8 20.8 20.8h124.5c11.4 0 20.8-9.3 20.8-20.8-0.1-11.5-9.4-20.8-20.8-20.8zM159.3 491.2h-41.5c-11.4 0-20.8 9.3-20.8 20.8s9.3 20.8 20.8 20.8h41.5c11.4 0 20.8-9.3 20.8-20.8s-9.4-20.8-20.8-20.8zM277.2 247.9l-29.3-29.3c-8.1-8.1-21.3-8.1-29.3 0-8.1 8.1-8.1 21.3 0 29.3l29.3 29.3c8.1 8.1 21.3 8.1 29.3 0s8.1-21.2 0-29.3zM512 180c11.4 0 20.8-9.3 20.8-20.8v-41.5c0-11.4-9.3-20.8-20.8-20.8s-20.8 9.3-20.8 20.8v41.5c0.1 11.5 9.4 20.8 20.8 20.8zM776.1 218.5l-29.3 29.3c-8.1 8.1-8.1 21.3 0 29.3s21.3 8.1 29.3 0l29.3-29.3c8.1-8.1 8.1-21.3 0-29.3-8-8-21.2-8-29.3 0zM906.4 493.9l-41.5-0.3c-11.4-0.1-20.8 9.2-20.9 20.6-0.1 11.4 9.2 20.8 20.6 20.9l41.5 0.3c11.4 0.1 20.8-9.2 20.9-20.6 0.1-11.5-9.2-20.9-20.6-20.9zM512 263c-137.5 0-249 111.5-249 249s111.5 249 249 249 249-111.5 249-249-111.5-249-249-249z m0 456.5c-114.4 0-207.5-93.1-207.5-207.5S397.6 304.5 512 304.5 719.5 397.6 719.5 512 626.4 719.5 512 719.5z" p-id="5885" fill="#ffffff"></path></svg>