<?xml version="1.0" standalone="no"?><!DOCTYPE svg PUBLIC "-//W3C//DTD SVG 1.1//EN" "http://www.w3.org/Graphics/SVG/1.1/DTD/svg11.dtd"><svg t="1700566771665" class="icon" viewBox="0 0 1024 1024" version="1.1" xmlns="http://www.w3.org/2000/svg" p-id="5763" xmlns:xlink="http://www.w3.org/1999/xlink" width="128" height="128"><path d="M491.52569 867.035062c-18.850323 0-36.611849-7.138584-50.039673-20.107967L173.066661 587.075883c-43.2572-41.558511-67.104327-96.968495-67.104327-155.948795 0-59.014068 23.880897-114.441449 67.224054-156.101267 43.087331-41.35385 100.30038-64.113203 161.081699-64.113203 55.020104 0 102.798271 18.611893 145.716756 56.854892l0.611937 0 10.504238 10.385535 6.986111-7.410783c43.172265-40.249703 92.515067-59.829644 150.71356-59.829644 60.781318 0 117.976972 22.759353 161.030533 64.095807 44.022633 42.068118 67.274196 96.05059 67.274196 156.118664 0 59.031465-23.863501 114.458845-67.189262 156.051125L541.599132 846.910723C528.153912 859.896478 510.37499 867.035062 491.52569 867.035062zM334.268086 263.127839c-47.234791 0-91.614557 17.609053-124.929314 49.563836-32.991392 31.699979-51.161217 73.767074-51.161217 118.436436 0 44.650943 18.152429 86.685291 51.127448 118.351502l268.469498 259.903401c7.138584 6.901177 20.36277 6.91755 27.535123-0.017396L773.677814 549.579897c33.042557-31.733749 51.212382-73.767074 51.212382-118.452809 0-45.467541-17.693987-86.413092-51.14382-118.401644l-0.051165-0.033769c-33.29736-31.954783-77.643358-49.563836-124.894522-49.563836-45.467541 0-82.452897 14.906501-116.259864 46.895053l-40.384779 48.748261-34.181497-38.787398-7.02909-7.41897-7.28287-7.215332C410.771481 276.589432 375.758036 263.127839 334.268086 263.127839z" fill="#231815" p-id="5764"></path></svg>