<?xml version="1.0" standalone="no"?><!DOCTYPE svg PUBLIC "-//W3C//DTD SVG 1.1//EN" "http://www.w3.org/Graphics/SVG/1.1/DTD/svg11.dtd"><svg t="1700735896557" class="icon" viewBox="0 0 1024 1024" version="1.1" xmlns="http://www.w3.org/2000/svg" p-id="4235" xmlns:xlink="http://www.w3.org/1999/xlink" width="128" height="128"><path d="M441.984 169.1904a234.9312 234.9312 0 1 0 0 469.8368 234.9312 234.9312 0 0 0 0-469.8368z m0 64a170.9312 170.9312 0 1 1 0 341.8368 170.9312 170.9312 0 0 1 0-341.8368z" fill="#2c2c2c" p-id="4236"></path><path d="M441.984 598.4256c172.7232 0 266.3168 73.0112 280.8064 219.008a24.32 24.32 0 0 1-21.8112 26.624l-2.4064 0.1024H185.3696a24.32 24.32 0 0 1-24.32-24.32v-1.2032l0.1024-1.2032c14.4896-145.9968 108.0832-219.008 280.832-219.008z m0 64c-119.04 0-183.5264 35.456-207.6416 112.64l-1.5104 5.0688h418.2784l-1.5104-5.0688c-23.552-75.3408-85.5808-110.9248-199.2192-112.5888l-8.3968-0.0512zM680.448 222.464a32 32 0 0 1 42.9568-14.2592 232.448 232.448 0 0 1 128.3072 207.872 232.2432 232.2432 0 0 1-71.1424 167.424l-4.2496 3.968 5.9904 2.9952c66.56 34.5088 106.2912 95.1552 117.1712 179.5072l0.9472 7.9616c3.072 29.1584-16.9728 55.3984-46.848 60.5696l-4.1472 0.5632-4.1472 0.1792h-63.2832a32 32 0 0 1 0-64l53.6064 0.0256-0.8448-5.7344c-12.2624-76.1856-53.888-121.1136-128.7424-139.4176l-7.3472-1.6896c-29.8496-6.4-34.5856-47.0016-7.04-60.16a168.4992 168.4992 0 0 0 96.0768-152.1664 168.448 168.448 0 0 0-93.0048-150.7072 32 32 0 0 1-14.2592-42.9568z" fill="#2c2c2c" p-id="4237"></path></svg>