<?xml version="1.0" standalone="no"?><!DOCTYPE svg PUBLIC "-//W3C//DTD SVG 1.1//EN" "http://www.w3.org/Graphics/SVG/1.1/DTD/svg11.dtd"><svg t="1701169266088" class="icon" viewBox="0 0 1024 1024" version="1.1" xmlns="http://www.w3.org/2000/svg" p-id="4714" xmlns:xlink="http://www.w3.org/1999/xlink" width="128" height="128"><path d="M298.666667 298.666667h597.333333v384H298.666667v85.333333h597.333333v42.666667H256V285.866667l-85.333333-85.333334 29.866666-29.866666L298.666667 268.8V298.666667z m0 42.666666v298.666667h554.666666V341.333333H298.666667z m42.666666 554.666667c-25.6 0-42.666667-17.066667-42.666666-42.666667s17.066667-42.666667 42.666666-42.666666 42.666667 17.066667 42.666667 42.666666-17.066667 42.666667-42.666667 42.666667z m469.333334 0c-25.6 0-42.666667-17.066667-42.666667-42.666667s17.066667-42.666667 42.666667-42.666666 42.666667 17.066667 42.666666 42.666666-17.066667 42.666667-42.666666 42.666667z" fill="#ffffff" p-id="4715"></path></svg>